# xmcd CD database file
#
# Track frame offsets:
#	150
#	19505
#	37612
#	54080
#	73565
#	88640
#	93187
#	110880
#	126757
#	142227
#	159192
#
# Disc length: 2405 seconds
#
# Revision: 1
# Processed by: cddbd v1.5.2PL0 Copyright (c) Steve Scherf et al.
# Submitted via: CDex 1.70beta2
#
DISCID=8209630b
DTITLE=真依子 - ウタコト
DYEAR=2005
DGENRE=JPop
TTITLE0=さくらこ
TTITLE1=つゆ草の青
TTITLE2=紅葉小色
TTITLE3=紅さしゆび
TTITLE4=ゆきうさぎ
TTITLE5=小夜
TTITLE6=十五夜
TTITLE7=てふてふ
TTITLE8=いろは
TTITLE9=おやすみの数えうた
TTITLE10=夕やけ
EXTD=YEAR: 2005
EXTT0=
EXTT1=
EXTT2=
EXTT3=
EXTT4=
EXTT5=
EXTT6=
EXTT7=
EXTT8=
EXTT9=
EXTT10=
PLAYORDER=
